<?xml version="1.0" standalone="no"?>
<!DOCTYPE svg PUBLIC "-//W3C//DTD SVG 20010904//EN"
 "http://www.w3.org/TR/2001/REC-SVG-20010904/DTD/svg10.dtd">
<svg version="1.0" xmlns="http://www.w3.org/2000/svg"
 width="1000.000000pt" height="1000.000000pt" viewBox="0 0 1000.000000 1000.000000"
 preserveAspectRatio="xMidYMid meet">

<g transform="translate(0.000000,1000.000000) scale(0.100000,-0.100000)"
fill="#000000" stroke="none">
<path d="M4635 9985 c-786 -62 -1426 -259 -2145 -661 -217 -122 -540 -352
-765 -547 -96 -83 -415 -402 -495 -494 -573 -664 -958 -1444 -1129 -2288 -67
-330 -95 -621 -95 -995 0 -288 10 -436 45 -700 94 -707 373 -1445 768 -2040
71 -105 266 -375 295 -406 6 -7 49 -57 96 -112 146 -172 464 -482 642 -625
158 -128 491 -359 623 -432 28 -15 95 -53 150 -83 474 -263 1079 -466 1635
-546 468 -68 1012 -68 1480 0 558 81 1159 281 1635 546 55 30 123 68 150 83
28 15 113 69 191 120 362 237 606 441 914 762 704 731 1185 1728 1319 2733 35
264 45 412 45 700 0 374 -28 665 -95 995 -173 856 -568 1649 -1150 2310 -156
177 -427 438 -599 577 -166 134 -492 360 -625 433 -27 15 -95 53 -150 83 -476
265 -1079 466 -1635 546 -335 49 -794 66 -1105 41z m706 -225 c905 -70 1722
-367 2464 -899 277 -198 616 -515 856 -801 641 -764 1023 -1710 1099 -2719 19
-255 6 -761 -25 -945 -3 -17 -14 -89 -26 -160 -141 -885 -542 -1733 -1134
-2396 -414 -464 -882 -825 -1425 -1099 -858 -434 -1814 -596 -2778 -470 -1252
162 -2393 825 -3169 1839 -803 1051 -1132 2402 -903 3715 125 714 401 1366
839 1980 53 74 220 284 251 315 3 3 25 28 49 55 185 210 467 470 696 642 725
543 1594 870 2500 942 159 12 549 13 706 1z"/>
<path d="M3971 9411 c-19 -5 -32 -23 -53 -75 -15 -38 -27 -71 -25 -72 2 -2 16
0 32 4 22 6 32 19 48 60 l19 51 43 -34 c41 -34 68 -42 92 -27 15 10 -89 102
-114 101 -10 -1 -29 -4 -42 -8z"/>
<path d="M6120 9388 c0 -11 14 -18 44 -22 77 -12 103 -71 34 -78 -25 -2 -34
-8 -36 -24 -2 -12 4 -24 12 -27 10 -4 16 -1 16 9 0 10 7 13 25 8 33 -8 83 13
91 38 15 48 -46 96 -133 105 -43 5 -53 3 -53 -9z"/>
<path d="M4945 9363 c-33 -9 -64 -34 -87 -72 -22 -35 -23 -44 -23 -268 0 -218
1 -233 21 -259 39 -53 70 -69 137 -69 49 0 69 5 96 24 51 36 61 72 61 216 l0
125 -80 0 -80 0 0 -40 c0 -39 1 -40 35 -40 l35 0 0 -83 c0 -94 -13 -117 -66
-117 -66 0 -74 28 -74 253 0 199 6 225 53 242 44 15 81 -11 85 -58 3 -37 4
-37 48 -37 l44 0 0 38 c0 99 -101 171 -205 145z"/>
<path d="M4598 9343 c-10 -2 -18 -7 -18 -10 0 -3 9 -83 21 -179 11 -96 19
-184 17 -195 -2 -14 -37 47 -97 170 l-95 191 -44 0 -45 0 6 -42 c3 -24 20
-175 38 -337 l33 -293 39 5 c21 3 41 8 44 11 4 3 -4 92 -16 197 -12 105 -20
193 -18 196 3 2 47 -81 99 -184 l95 -188 41 -3 c39 -3 42 -1 42 21 0 19 -24
235 -65 595 -6 49 -8 52 -33 51 -15 -1 -35 -3 -44 -6z"/>
<path d="M5536 9303 c-6 -30 -106 -629 -106 -636 0 -9 181 -29 213 -23 72 13
114 81 124 198 5 61 3 73 -17 100 l-22 30 35 29 c28 23 38 41 47 85 29 139
-27 206 -190 229 -25 4 -52 9 -62 11 -11 3 -18 -3 -22 -23z m166 -95 c23 -11
32 -48 25 -99 -7 -56 -31 -79 -81 -79 -64 0 -65 3 -47 108 l15 92 36 -6 c19
-4 43 -11 52 -16z m-49 -265 c26 -7 39 -49 31 -102 -13 -92 -45 -121 -117
-107 l-33 6 17 108 c10 59 18 108 19 110 0 4 50 -5 83 -15z"/>
<path d="M3979 9239 c-42 -25 -79 -84 -79 -125 0 -47 89 -415 108 -447 30 -52
67 -72 132 -72 44 0 66 5 87 21 42 31 73 83 73 121 0 48 -88 422 -107 453 -40
67 -144 91 -214 49z m138 -99 c6 -14 31 -108 54 -209 46 -200 45 -228 -2 -245
-39 -13 -75 0 -87 31 -14 36 -92 369 -92 394 0 58 102 81 127 29z"/>
<path d="M6033 9189 c-17 -11 -38 -31 -47 -44 -20 -31 -126 -405 -126 -446 0
-44 25 -92 63 -120 26 -20 44 -24 99 -24 64 0 70 2 103 35 32 32 41 56 95 245
66 231 69 261 23 316 -14 16 -38 36 -54 44 -41 22 -118 19 -156 -6z m137 -89
c11 -11 20 -26 20 -32 0 -23 -112 -403 -122 -415 -14 -18 -69 -16 -96 3 -12 8
-22 26 -22 39 0 39 101 388 118 408 21 24 77 22 102 -3z"/>
<path d="M3658 9147 c-16 -6 -28 -14 -28 -18 0 -4 20 -64 45 -134 25 -71 42
-131 38 -135 -6 -6 -100 -40 -109 -40 -1 0 -23 61 -50 135 -52 146 -45 139
-111 114 l-22 -8 18 -53 c11 -29 50 -141 89 -248 38 -107 80 -224 92 -260 12
-36 24 -66 25 -68 1 -2 21 5 44 14 32 13 41 21 36 33 -21 50 -95 264 -93 266
2 1 29 11 60 22 l57 20 15 -44 c8 -24 32 -89 52 -143 l36 -99 36 15 c20 8 38
17 40 19 4 3 -155 462 -202 585 -15 39 -27 43 -68 27z"/>
<path d="M3163 8955 c-73 -35 -133 -66 -133 -68 0 -15 23 -67 30 -67 5 0 29 9
55 20 l46 20 44 -93 c23 -50 73 -155 110 -232 37 -77 73 -155 81 -173 l14 -32
40 20 40 20 -14 33 c-8 17 -40 86 -71 152 -31 66 -79 166 -106 223 -27 57 -49
109 -49 116 0 7 20 21 45 30 25 10 45 20 45 22 0 14 -30 74 -37 73 -4 0 -68
-29 -140 -64z"/>
<path d="M6514 8717 c-136 -292 -140 -302 -120 -313 59 -32 58 -33 122 103 32
70 71 152 86 183 l26 55 1 -40 c0 -22 -6 -105 -14 -185 -21 -216 -22 -212 23
-230 l37 -16 142 303 141 303 -39 21 -40 20 -72 -153 c-40 -84 -80 -169 -89
-188 l-17 -35 0 35 c0 19 8 117 18 218 l17 183 -37 20 c-21 10 -40 19 -41 19
-2 0 -66 -137 -144 -303z"/>
<path d="M7095 8731 c-16 -10 -37 -27 -47 -37 -35 -40 -219 -349 -228 -384
-27 -100 66 -200 174 -188 25 3 57 13 70 21 18 13 156 216 156 232 0 5 -141
88 -143 84 -32 -46 -38 -62 -26 -70 55 -31 55 -32 19 -90 -48 -77 -60 -89 -87
-89 -56 0 -94 50 -72 93 7 12 56 95 111 185 106 173 123 189 175 161 36 -19
47 -54 28 -92 -8 -16 -15 -31 -15 -33 0 -1 16 -12 36 -24 34 -22 36 -22 49 -4
8 11 19 36 25 57 35 123 -118 244 -225 178z"/>
<path d="M2703 8707 c-18 -12 -33 -24 -33 -27 0 -3 49 -79 110 -170 60 -90
107 -166 105 -168 -1 -2 -79 53 -173 122 -93 69 -174 126 -178 126 -5 0 -22
-10 -38 -23 l-28 -23 182 -274 c100 -151 183 -276 185 -278 3 -3 29 12 73 44
2 1 -47 77 -108 169 -61 92 -110 168 -108 170 2 2 55 -34 118 -81 117 -87 175
-128 215 -153 20 -13 25 -12 54 8 18 13 28 27 24 34 -19 33 -364 547 -366 546
-1 0 -17 -10 -34 -22z"/>
<path d="M2145 8670 c-3 -5 -3 -15 0 -20 16 -25 -9 -50 -76 -76 -87 -34 -108
-64 -89 -126 9 -32 14 -37 25 -28 8 6 15 26 17 43 3 28 9 33 63 55 78 31 105
56 105 98 0 18 -3 39 -6 48 -7 18 -30 21 -39 6z"/>
<path d="M2138 8497 c-25 -20 -28 -29 -27 -82 0 -33 3 -68 7 -77 6 -15 9 -15
30 2 20 17 22 24 16 74 -4 31 -5 56 -2 56 2 0 28 -7 57 -16 49 -14 54 -14 72
2 10 9 19 20 19 23 0 6 -119 41 -137 41 -4 -1 -20 -11 -35 -23z"/>
<path d="M7549 8442 c-33 -29 -457 -382 -478 -398 -5 -4 52 -53 63 -54 5 0 33
21 63 46 l54 46 54 -42 54 -42 -33 -67 -34 -66 38 -28 c38 -27 39 -27 45 -6 4
11 33 75 64 142 90 190 211 453 211 460 0 3 -13 15 -29 26 l-29 21 -43 -38z
m-94 -252 c-30 -60 -59 -110 -63 -110 -4 1 -23 14 -42 30 -30 26 -32 32 -20
44 38 38 166 146 173 146 4 0 -18 -49 -48 -110z"/>
<path d="M2315 8428 c-22 -18 -42 -35 -45 -38 -6 -6 -96 -79 -119 -96 -12 -9
9 -40 130 -185 79 -96 175 -211 213 -257 38 -46 72 -82 76 -80 5 2 54 41 109
86 107 89 109 94 63 135 -19 17 -22 16 -92 -42 l-73 -60 -63 77 c-35 42 -64
79 -64 82 0 3 27 27 60 53 33 27 60 52 60 55 -1 4 -11 20 -24 36 l-24 29 -61
-52 c-34 -28 -65 -51 -69 -51 -11 1 -125 147 -121 157 2 4 33 33 70 64 l68 56
-27 32 -27 32 -40 -33z"/>
<path d="M4785 8344 c-210 -20 -278 -29 -395 -50 -306 -56 -606 -156 -874
-291 l-79 -40 54 -21 c200 -80 759 -306 784 -317 17 -7 117 -48 224 -91 l193
-77 24 -54 c14 -30 94 -228 180 -441 86 -213 224 -553 306 -757 82 -203 241
-597 353 -875 112 -278 242 -602 290 -720 227 -561 295 -732 295 -738 0 -4
-15 -23 -33 -42 -18 -19 -71 -80 -117 -135 -47 -55 -127 -149 -179 -210 -51
-60 -101 -119 -110 -130 -18 -23 -125 -149 -276 -325 -55 -64 -120 -141 -145
-171 -25 -29 -99 -116 -165 -192 -66 -77 -136 -158 -155 -182 -64 -77 -192
-230 -201 -239 -5 -5 -11 -7 -15 -4 -6 7 4 -18 -269 653 -112 275 -235 577
-273 670 -38 94 -114 278 -167 410 -54 132 -108 265 -120 295 -12 30 -61 150
-108 265 -233 574 -566 1391 -692 1700 -41 99 -115 281 -165 405 -51 124 -139
341 -197 483 l-106 258 -35 -33 c-70 -66 -206 -225 -290 -337 -356 -476 -569
-1004 -648 -1606 -22 -165 -25 -609 -5 -770 49 -406 142 -730 312 -1084 176
-365 392 -666 686 -952 479 -466 1075 -775 1723 -893 230 -41 342 -51 610 -51
268 0 380 10 610 51 1037 188 1941 877 2401 1829 177 367 270 687 320 1100 20
161 17 605 -5 770 -51 390 -144 705 -310 1050 -400 829 -1120 1455 -2001 1739
-192 61 -380 102 -607 131 -116 15 -534 28 -623 19z m1165 -1673 c206 -84 665
-272 938 -385 128 -53 236 -96 240 -96 8 0 15 -18 178 -430 190 -485 178 -449
162 -468 -8 -9 -66 -78 -129 -152 -63 -74 -157 -185 -209 -246 -52 -61 -149
-175 -215 -254 -157 -187 -183 -216 -188 -210 -2 3 -50 118 -105 255 -56 138
-146 360 -201 495 -524 1292 -623 1535 -627 1542 -9 15 11 8 156 -51z"/>
<path d="M7674 8063 c-103 -109 -206 -217 -228 -241 l-40 -42 31 -31 31 -31
110 113 c60 63 122 129 137 147 15 17 31 32 35 32 5 0 -28 -82 -72 -182 -44
-101 -82 -192 -85 -203 -3 -13 6 -30 24 -47 l28 -27 232 243 232 243 -33 32
-33 32 -138 -146 c-76 -80 -140 -144 -142 -142 -2 3 34 92 81 198 l86 193 -27
28 c-15 15 -30 28 -33 28 -4 0 -92 -89 -196 -197z"/>
<path d="M1995 8150 l-28 -30 59 -62 c33 -35 135 -143 229 -241 l169 -177 32
31 33 32 -226 236 c-124 130 -229 237 -232 239 -4 1 -20 -11 -36 -28z"/>
<path d="M1846 8001 c-16 -16 -26 -36 -23 -43 3 -7 68 -92 146 -188 77 -96
139 -176 137 -178 -2 -2 -93 54 -201 123 l-198 127 -34 -34 -34 -34 83 -49
c46 -27 165 -97 265 -156 180 -107 237 -139 247 -139 2 0 14 13 26 29 l21 30
-187 253 c-102 139 -194 261 -203 271 -16 17 -18 16 -45 -12z"/>
<path d="M8135 7831 c-16 -10 -97 -75 -180 -145 -165 -139 -188 -171 -181
-245 10 -112 140 -178 235 -120 37 22 174 138 179 151 2 4 -20 35 -49 68 l-52
60 -29 -27 -28 -27 20 -21 c11 -12 20 -26 20 -32 0 -21 -111 -103 -141 -103
-33 0 -69 34 -69 66 0 30 15 46 178 183 156 131 179 141 220 98 29 -30 28 -59
-3 -95 l-24 -29 29 -34 30 -34 35 39 c56 63 59 137 9 204 -47 60 -139 81 -199
43z"/>
<path d="M1411 7471 c-12 -16 -21 -33 -21 -38 0 -4 75 -57 166 -116 91 -60
164 -111 161 -113 -2 -2 -96 18 -208 45 l-204 50 -22 -27 c-31 -37 -29 -48 16
-76 21 -14 145 -95 276 -181 130 -86 238 -155 239 -153 2 2 12 19 24 38 l21
36 -165 108 c-90 60 -163 111 -160 113 3 3 96 -16 207 -42 l203 -48 23 29 c12
16 22 33 20 38 -3 8 -542 366 -552 366 -2 0 -13 -13 -24 -29z"/>
<path d="M8499 7300 c-45 -24 -98 -78 -106 -108 -3 -12 -2 -57 3 -100 5 -42 7
-86 6 -97 -3 -24 -33 -50 -90 -76 -40 -19 -45 -19 -68 -4 -29 19 -47 59 -39
86 4 10 17 27 31 38 l24 19 -21 36 c-11 20 -25 36 -29 36 -5 0 -24 -15 -43
-33 -72 -67 -70 -168 3 -238 21 -20 52 -38 68 -41 77 -11 215 61 247 128 15
31 15 45 4 125 -15 105 -12 114 53 147 38 19 49 21 71 11 22 -10 47 -46 47
-69 0 -5 -14 -25 -31 -45 l-31 -35 22 -35 22 -35 26 19 c42 30 59 53 72 98 11
36 11 49 -4 87 -10 25 -33 59 -52 76 -30 26 -42 30 -92 30 -36 -1 -70 -8 -93
-20z"/>
<path d="M1115 7105 c-5 -2 -36 -6 -68 -10 -54 -6 -58 -9 -77 -44 l-19 -38 36
-68 36 -68 15 28 c13 26 13 32 -7 72 -11 24 -21 47 -21 52 0 5 24 12 54 15 44
6 55 12 65 32 16 35 14 39 -14 29z"/>
<path d="M1119 6979 c-33 -67 -57 -125 -52 -129 4 -4 85 -47 178 -95 94 -48
221 -115 284 -148 133 -70 113 -79 196 84 l54 106 -39 18 c-22 10 -42 16 -44
14 -2 -2 -20 -38 -41 -79 -21 -41 -39 -77 -41 -79 -3 -3 -163 76 -176 88 -5 4
8 36 27 71 19 36 35 70 35 76 0 6 -16 18 -35 27 l-35 17 -35 -70 c-19 -39 -40
-70 -47 -70 -6 0 -49 19 -94 42 l-82 42 43 87 44 86 -35 16 c-19 10 -37 17
-39 17 -3 0 -32 -55 -66 -121z"/>
<path d="M8879 6876 c-2 -2 -143 -36 -314 -76 -170 -39 -311 -73 -313 -75 -6
-6 32 -75 42 -75 6 0 36 7 66 15 30 8 59 15 63 15 9 0 57 -98 57 -116 0 -7
-25 -30 -55 -53 l-54 -41 16 -37 c8 -21 16 -39 18 -41 2 -2 61 42 132 98 70
56 192 151 270 212 l141 111 -16 34 c-13 28 -39 42 -53 29z m-119 -111 c0 -3
-46 -39 -102 -80 l-102 -75 -17 37 c-10 21 -18 43 -19 49 0 6 51 25 113 42
123 33 127 34 127 27z"/>
<path d="M978 6675 l-16 -42 301 -129 c165 -71 304 -130 307 -132 11 -4 41 71
32 80 -7 7 -335 151 -543 238 l-66 27 -15 -42z"/>
<path d="M9039 6555 c-3 -2 -137 -51 -299 -108 -186 -66 -296 -110 -298 -119
-1 -8 3 -27 10 -44 l13 -30 190 67 c104 37 191 66 193 64 2 -1 -71 -64 -162
-139 -92 -76 -166 -141 -166 -145 0 -17 22 -71 29 -71 14 0 606 212 615 220 9
9 -11 80 -23 80 -4 0 -90 -29 -191 -65 -100 -36 -184 -64 -186 -62 -3 3 263
226 314 263 14 10 14 18 4 53 -11 36 -29 51 -43 36z"/>
<path d="M882 6453 c-6 -21 -8 -41 -4 -44 4 -4 64 -26 135 -50 101 -34 126
-47 122 -59 -4 -8 -11 -34 -18 -57 -6 -24 -16 -43 -22 -43 -10 0 -217 68 -256
84 -12 5 -19 -3 -28 -35 -7 -22 -11 -43 -9 -45 5 -4 620 -214 629 -214 6 0 32
80 27 85 -2 1 -61 21 -133 45 -71 23 -134 46 -139 50 -6 6 17 103 29 117 1 2
62 -17 135 -42 74 -25 139 -45 145 -45 11 0 38 70 31 77 -5 5 -616 213 -625
213 -4 0 -13 -17 -19 -37z"/>
<path d="M8890 6015 c-102 -24 -200 -52 -218 -61 -94 -50 -100 -200 -11 -266
42 -32 95 -33 221 -3 l115 26 -17 75 c-10 41 -20 77 -23 80 -3 3 -21 2 -40 -1
-34 -7 -34 -7 -26 -43 4 -20 6 -38 4 -40 -6 -7 -120 -31 -146 -32 -55 0 -85
85 -42 119 11 9 108 36 217 60 212 48 217 48 246 -2 13 -24 13 -30 0 -54 -9
-15 -29 -32 -45 -37 -17 -6 -31 -11 -32 -11 -7 -2 21 -85 29 -85 19 0 84 32
104 51 72 68 42 216 -52 255 -48 20 -78 17 -284 -31z"/>
<path d="M742 5998 c-6 -23 -10 -43 -9 -44 1 0 81 -18 177 -38 224 -48 222
-48 216 -53 -2 -3 -98 -17 -213 -32 l-208 -27 -13 -39 c-8 -26 -9 -41 -2 -45
16 -10 639 -144 644 -139 3 3 8 23 11 44 l7 40 -184 39 c-101 21 -189 42 -197
46 -15 8 -8 9 234 41 94 12 174 25 178 29 8 7 28 80 22 80 -2 0 -148 32 -324
70 -176 39 -322 70 -324 70 -3 0 -9 -19 -15 -42z"/>
<path d="M8980 5390 c-146 -16 -273 -29 -282 -29 -14 -1 -18 -10 -18 -46 0
-36 3 -45 18 -45 9 1 159 16 332 33 l315 32 0 40 0 40 -50 2 c-27 0 -169 -12
-315 -27z"/>
<path d="M632 5338 c3 -28 7 -33 33 -36 37 -5 55 -19 55 -43 0 -16 -8 -19 -51
-19 l-50 0 3 -42 3 -43 268 -12 c294 -13 307 -16 307 -74 0 -64 -31 -68 -395
-49 -196 10 -195 10 -195 -46 0 -31 0 -31 63 -37 34 -4 163 -9 287 -12 216 -6
226 -6 258 14 97 62 96 205 -3 262 -22 13 -63 19 -160 24 -245 11 -275 15
-275 34 0 10 -5 33 -11 51 -13 36 -57 60 -109 60 -29 0 -31 -2 -28 -32z"/>
<path d="M9278 5183 l-3 -58 -180 -6 c-99 -4 -228 -7 -287 -8 l-108 -1 0 -46
0 -46 277 8 c152 4 284 7 292 8 13 1 17 -12 19 -56 3 -61 8 -66 60 -52 21 6
22 10 22 144 0 76 -3 145 -6 154 -4 11 -19 16 -45 16 l-38 0 -3 -57z"/>
<path d="M1350 5060 l0 -40 45 0 c44 0 45 0 45 34 0 30 -4 34 -31 40 -56 11
-59 9 -59 -34z"/>
<path d="M650 4823 l-35 -4 9 -154 9 -155 44 0 45 0 -7 58 -6 58 293 18 c161
10 294 19 295 20 1 1 -1 20 -4 44 -7 50 27 48 -331 24 -139 -10 -255 -15 -258
-13 -2 2 -4 28 -4 58 0 29 -3 52 -7 51 -5 -1 -24 -3 -43 -5z"/>
<path d="M8824 4332 l-58 -139 -131 -28 c-133 -28 -165 -39 -165 -55 0 -5 50
-51 111 -102 l110 -93 -6 -70 c-18 -220 -18 -245 -4 -245 8 0 48 22 89 48 41
26 98 61 125 76 l50 28 123 -56 c129 -58 162 -67 162 -40 0 8 -13 72 -30 141
-16 69 -30 130 -30 137 0 6 43 59 95 116 53 57 94 111 93 119 -2 12 -23 18
-83 24 -44 4 -111 11 -150 15 l-69 7 -72 125 c-39 69 -78 126 -87 128 -10 2
-31 -36 -73 -136z"/>
<path d="M1073 4342 c-15 -27 -48 -85 -73 -129 l-45 -81 -142 -12 c-92 -8
-147 -17 -154 -26 -8 -10 13 -39 92 -124 l102 -111 -31 -141 c-18 -77 -29
-144 -26 -149 10 -16 31 -10 141 42 159 75 142 72 209 30 120 -76 195 -114
205 -104 7 7 4 60 -7 156 l-17 146 54 48 c140 124 170 156 157 169 -7 6 -74
23 -147 38 -74 14 -138 29 -142 33 -4 5 -32 64 -62 133 -33 75 -61 126 -70
128 -10 2 -26 -15 -44 -46z"/>
<path d="M8572 3458 c-38 -51 -76 -105 -86 -120 l-17 -26 -155 5 c-147 6 -154
5 -154 -13 1 -10 37 -68 80 -129 44 -60 80 -116 80 -123 0 -7 -20 -69 -45
-138 -25 -68 -45 -131 -45 -139 0 -22 28 -19 145 19 168 55 144 58 274 -44 88
-69 117 -87 127 -79 10 8 14 51 16 156 l3 146 120 82 c66 45 120 88 120 96 0
9 -51 31 -142 62 -135 47 -143 51 -151 81 -6 17 -22 76 -38 131 -28 100 -39
125 -55 125 -5 0 -40 -42 -77 -92z"/>
<path d="M1330 3358 c-45 -171 -39 -162 -112 -188 -155 -56 -218 -82 -218 -88
1 -16 21 -31 131 -102 l116 -73 7 -105 c3 -58 6 -127 6 -154 0 -39 3 -48 18
-48 10 0 67 40 128 89 l110 90 142 -42 c100 -29 145 -38 153 -30 7 7 -5 50
-40 142 -28 73 -51 137 -51 143 0 5 36 62 80 125 44 64 80 123 80 131 0 13
-22 14 -154 8 l-155 -6 -87 115 c-51 66 -95 115 -105 115 -13 0 -24 -27 -49
-122z"/>
<path d="M8114 2667 c-34 -29 -83 -70 -109 -91 l-46 -40 -82 22 c-45 12 -110
30 -144 39 -42 12 -66 14 -73 7 -7 -7 8 -55 46 -148 l55 -138 -81 -119 c-44
-66 -80 -126 -80 -134 0 -17 56 -19 213 -7 49 4 92 5 96 2 3 -3 40 -48 81
-100 103 -131 108 -136 121 -123 6 6 26 70 44 143 18 73 38 137 43 142 5 5 68
31 138 57 99 37 129 52 129 66 0 12 -40 43 -122 94 l-122 76 -1 61 c0 33 -3
102 -6 152 -8 111 -13 113 -100 39z"/>
<path d="M1829 2658 c-1 -7 -2 -22 -3 -33 -1 -11 -3 -74 -4 -141 l-2 -121
-125 -82 c-69 -45 -125 -86 -125 -91 0 -14 18 -22 155 -71 l130 -46 40 -143
c22 -79 45 -145 52 -147 11 -4 75 72 156 183 l36 51 156 -5 c128 -4 155 -2
155 9 0 8 -21 43 -46 79 -25 36 -62 89 -82 119 l-36 53 28 77 c68 185 75 206
66 215 -6 6 -61 -6 -148 -32 -77 -23 -141 -42 -144 -42 -2 0 -56 41 -119 90
-111 88 -138 103 -140 78z"/>
<path d="M6893 1780 c-17 -12 -42 -41 -54 -66 -25 -53 -22 -96 11 -149 21 -34
22 -34 48 -20 55 30 55 29 33 70 -22 42 -17 66 20 85 28 16 63 -8 90 -62 19
-37 23 -69 31 -248 8 -180 12 -210 31 -247 12 -24 26 -43 30 -43 14 0 247 140
247 148 0 12 -39 72 -48 72 -4 0 -40 -20 -80 -45 -39 -25 -72 -44 -73 -42 0 1
-6 90 -13 198 -12 182 -15 199 -41 246 -44 83 -85 116 -147 120 -41 3 -60 -1
-85 -17z"/>
<path d="M3020 1698 c-18 -35 -45 -85 -60 -113 -147 -271 -230 -436 -225 -445
11 -17 67 -42 75 -33 4 4 51 89 104 188 53 99 96 171 96 159 0 -23 -47 -377
-55 -411 -4 -18 2 -26 36 -43 22 -12 42 -20 44 -18 3 4 277 522 304 575 l21
43 -40 20 c-44 22 -50 24 -50 11 0 -5 -19 -44 -43 -87 -24 -44 -65 -119 -91
-169 -57 -108 -70 -123 -62 -75 18 103 56 377 56 400 0 20 -8 30 -35 43 -20 9
-37 17 -39 17 -2 0 -19 -28 -36 -62z"/>
<path d="M6606 1618 c-45 -27 -76 -78 -76 -127 0 -24 35 -105 109 -256 122
-249 138 -269 220 -269 84 0 151 63 151 142 0 59 -204 479 -246 507 -44 29
-112 30 -158 3z m212 -293 c97 -197 103 -212 90 -235 -16 -29 -52 -38 -75 -18
-23 19 -203 393 -203 422 0 14 9 31 21 40 43 30 58 11 167 -209z"/>
<path d="M3255 1264 c-71 -174 -131 -320 -133 -324 -1 -4 16 -14 40 -23 50
-20 43 -28 99 113 23 58 48 117 56 132 l13 27 52 -21 c29 -12 56 -24 60 -28 4
-3 -19 -70 -52 -149 -33 -79 -59 -145 -58 -146 2 -1 22 -9 44 -18 l41 -16 16
37 c9 20 34 80 55 132 22 52 74 178 116 280 42 102 76 190 76 196 0 6 -18 18
-40 27 -40 15 -41 15 -49 -6 -25 -62 -104 -253 -107 -256 -3 -3 -111 36 -122
45 -2 1 22 61 52 134 31 73 56 137 56 142 0 8 -60 38 -77 38 -4 0 -66 -142
-138 -316z"/>
<path d="M3811 1531 c-55 -44 -59 -49 -38 -55 39 -10 53 -7 92 24 21 17 41 30
45 30 3 0 14 -24 23 -53 15 -46 22 -55 51 -64 l33 -10 -25 77 c-24 74 -28 79
-62 89 -53 16 -51 16 -119 -38z"/>
<path d="M6315 1491 c-48 -29 -67 -57 -72 -103 -4 -37 8 -77 82 -268 91 -238
112 -273 173 -290 90 -24 192 49 192 138 0 29 -14 68 -116 331 -59 150 -69
168 -107 191 -41 26 -112 26 -152 1z m108 -89 c22 -25 167 -400 167 -434 0
-21 -7 -32 -25 -40 -50 -23 -62 -6 -147 212 -44 113 -80 216 -80 229 -1 45 55
67 85 33z"/>
<path d="M3683 1153 c-83 -148 -163 -289 -178 -314 l-26 -47 44 -15 44 -15 33
62 c18 33 35 64 39 68 3 4 36 -2 74 -13 l67 -21 -6 -56 c-3 -32 -7 -66 -9 -78
-4 -17 3 -23 37 -33 28 -9 43 -9 47 -2 4 6 17 145 30 308 12 164 25 321 28
349 5 48 4 52 -20 58 -14 3 -31 8 -39 11 -9 3 -62 -81 -165 -262z m133 35 c-3
-13 -10 -70 -16 -128 -7 -58 -13 -106 -14 -107 -3 -4 -84 22 -91 29 -4 4 19
57 51 117 56 106 80 137 70 89z"/>
<path d="M6040 1398 c-73 -20 -118 -92 -106 -171 10 -63 16 -69 57 -56 47 16
50 20 39 59 -12 43 9 80 45 80 32 0 50 -20 65 -76 13 -45 11 -61 -29 -261 -37
-191 -41 -217 -30 -254 15 -48 8 -48 179 4 124 37 124 38 101 99 l-10 26 -82
-24 c-45 -13 -84 -22 -87 -19 -2 2 12 89 31 194 35 184 36 191 21 247 -21 80
-50 123 -98 145 -46 21 -48 21 -96 7z"/>
<path d="M4016 1206 c-16 -83 -46 -239 -67 -346 -21 -107 -37 -195 -36 -196 1
-1 22 -5 47 -9 l46 -7 38 204 c21 112 41 206 45 211 4 4 16 -65 26 -153 13
-115 22 -160 32 -161 7 -1 18 -2 24 -3 6 -1 46 62 90 139 43 77 79 133 79 125
0 -8 -16 -96 -35 -195 -39 -200 -41 -225 -21 -225 7 0 27 -3 43 -6 l30 -6 33
174 c18 95 48 249 66 342 19 93 32 171 29 174 -2 2 -23 8 -45 12 l-41 7 -38
-66 c-21 -36 -67 -115 -102 -176 l-64 -109 -11 69 c-7 39 -20 129 -30 202
l-18 131 -45 9 -46 9 -29 -150z"/>
<path d="M5515 1275 c-78 -42 -100 -85 -91 -180 13 -148 63 -417 83 -443 39
-52 70 -67 138 -67 71 0 103 17 144 76 21 31 23 41 17 109 -3 41 -19 153 -35
249 -30 180 -39 204 -94 245 -36 26 -122 32 -162 11z m123 -99 c7 -7 26 -91
41 -187 45 -276 44 -263 23 -289 -23 -29 -83 -33 -109 -8 -19 19 -86 418 -76
456 11 45 86 63 121 28z"/>
<path d="M5156 1246 c-51 -19 -94 -62 -106 -106 -11 -42 12 -459 28 -501 15
-37 76 -87 117 -95 75 -14 153 23 186 88 19 37 20 51 13 175 l-7 136 -66 -7
c-36 -3 -76 -6 -89 -6 -21 0 -23 -4 -20 -37 3 -37 4 -38 46 -41 l42 -3 0 -88
c0 -91 -7 -108 -53 -124 -23 -9 -63 8 -76 31 -6 10 -16 117 -23 237 l-12 217
23 19 c50 40 121 10 121 -51 0 -29 1 -30 50 -30 45 0 50 2 50 23 -1 33 -25 95
-47 119 -42 47 -117 65 -177 44z"/>
<path d="M4656 1053 c-3 -109 -9 -269 -13 -355 l-6 -158 45 0 45 0 7 53 c3 28
6 102 7 162 0 61 4 133 8 160 l7 50 70 -215 70 -215 47 -3 47 -3 0 53 c0 29 5
185 11 346 6 161 9 295 6 298 -3 3 -23 8 -45 11 l-39 5 -6 -62 c-4 -35 -7
-111 -8 -169 0 -58 -4 -128 -7 -156 l-7 -50 -69 218 c-55 169 -73 217 -87 217
-9 0 -30 3 -46 6 l-30 6 -7 -199z"/>
<path d="M5671 523 l-33 -4 7 -47 c4 -26 8 -47 8 -48 1 -1 19 1 40 4 32 4 37
8 37 31 0 33 -10 71 -19 69 -3 0 -21 -3 -40 -5z"/>
</g>
</svg>
